<svg width="430" height="86" viewBox="0 0 430 86" fill="none"
    xmlns="http://www.w3.org/2000/svg">
    <g>
        <path
            d="M11 18C11 12.4772 15.5143 7.99999 21.0371 8.00001C84.9408 8.00017 104.745 8.00455 157.365 8.1171C159.567 8.12181 161.75 8.86692 163.492 10.2146C199.787 38.2912 203.725 42.9375 216 42.9375C228.285 42.9375 232.22 38.1644 269.621 10.0176C271.351 8.71629 273.502 8.00001 275.666 8.00002C327.798 8.00036 347.467 8.00004 410.963 8C416.486 8 421 12.4772 421 18V63C421 68.5229 416.523 73 411 73H21C15.4771 73 11 68.5229 11 63V18Z"
            fill="#d1d5dc" />
    </g>
</svg>